<?xml version="1.0" encoding="utf-8"?>
<!-- Generator: Adobe Illustrator 23.1.0, SVG Export Plug-In . SVG Version: 6.00 Build 0)  -->
<svg version="1.1" id="Layer_1" xmlns="http://www.w3.org/2000/svg" xmlns:xlink="http://www.w3.org/1999/xlink" x="0px" y="0px"
	 viewBox="0 0 74.8 75.8" style="enable-background:new 0 0 74.8 75.8;" xml:space="preserve">
<style type="text/css">
	.st0{fill:url(#SVGID_1_);}
	.st1{fill:#FFFFFE;}
	.st2{fill:url(#SVGID_2_);}
</style>
<linearGradient id="SVGID_1_" gradientUnits="userSpaceOnUse" x1="1335.2697" y1="-238.4306" x2="1386.1813" y2="-187.5189" gradientTransform="matrix(0.7071 0.7071 -0.7071 0.7071 -1075.5831 -773.7396)">
	<stop  offset="0" style="stop-color:#66B9E2"/>
	<stop  offset="0.134" style="stop-color:#60B7E1"/>
	<stop  offset="0.31" style="stop-color:#50B0DE"/>
	<stop  offset="0.509" style="stop-color:#35A4D9"/>
	<stop  offset="0.723" style="stop-color:#0F95D2"/>
	<stop  offset="0.8" style="stop-color:#008ECF"/>
</linearGradient>
<path class="st0" d="M37.2,73.8l-36-36l36-36l36,36L37.2,73.8z"/>
<circle class="st1" cx="37.2" cy="37.8" r="22.1"/>
<linearGradient id="SVGID_2_" gradientUnits="userSpaceOnUse" x1="925.191" y1="887.0935" x2="925.191" y2="846.0105" gradientTransform="matrix(1 0 0 1 -888 -829.3858)">
	<stop  offset="0" style="stop-color:#76BFE4"/>
	<stop  offset="0.123" style="stop-color:#70BDE3"/>
	<stop  offset="0.283" style="stop-color:#60B6E0"/>
	<stop  offset="0.464" style="stop-color:#45ABDB"/>
	<stop  offset="0.66" style="stop-color:#1F9BD5"/>
	<stop  offset="0.8" style="stop-color:#008ECF"/>
</linearGradient>
<circle class="st2" cx="37.2" cy="37.8" r="19.9"/>
<path class="st1" d="M25.6,41.7c-0.2,0.2-0.4,0.3-0.5,0.5c-0.2,0.2-0.4,0.3-0.7,0.4c-0.2,0.1-0.5,0.2-0.8,0.3
	C23.4,42.9,23,43,22.6,43c-0.8,0-1.5-0.3-2.1-0.9c-0.6-0.6-0.8-1.3-0.8-2.1c0-0.7,0.1-1.3,0.4-1.7c0.3-0.4,0.7-0.8,1.2-1
	c0.5-0.3,1.2-0.4,1.9-0.5c0.8-0.1,1.6-0.2,2.4-0.2v-0.1c0-0.5-0.2-0.9-0.6-1.1c-0.4-0.2-1-0.3-1.7-0.3c-0.4,0-0.8,0.1-1.2,0.2
	c-0.5,0.1-0.9,0.3-1.4,0.5h-0.3v-2.3c0.3-0.1,0.8-0.2,1.4-0.3c0.7-0.1,1.3-0.2,2-0.2c1.6,0,2.8,0.3,3.6,0.8c0.8,0.5,1.1,1.4,1.1,2.5
	v6.5h-3L25.6,41.7C25.6,41.7,25.6,41.7,25.6,41.7z M25.6,40.2v-2c-0.5,0.1-0.9,0.1-1.2,0.1c-0.3,0-0.6,0.1-0.9,0.2
	c-0.3,0.1-0.5,0.2-0.6,0.4c-0.1,0.2-0.2,0.4-0.2,0.7c0,0.4,0.1,0.8,0.4,0.9c0.2,0.2,0.6,0.2,1.1,0.2c0.3,0,0.5-0.1,0.8-0.2
	C25.2,40.6,25.4,40.4,25.6,40.2z M35.2,43c-0.8,0-1.5-0.1-2.2-0.3c-0.6-0.2-1.2-0.5-1.7-0.9c-0.5-0.4-0.9-1-1.1-1.6
	c-0.3-0.6-0.4-1.4-0.4-2.2c0-0.9,0.1-1.7,0.4-2.3c0.3-0.6,0.7-1.2,1.2-1.6c0.5-0.4,1.1-0.7,1.7-0.9c0.7-0.2,1.3-0.3,2-0.3
	c1.1,0,2.2,0.3,3.2,0.8v2.6h-0.4c-0.1-0.1-0.3-0.3-0.4-0.4c-0.2-0.1-0.4-0.3-0.6-0.4c-0.2-0.1-0.5-0.2-0.7-0.3
	c-0.3-0.1-0.6-0.1-0.9-0.1c-0.8,0-1.4,0.3-1.8,0.8c-0.4,0.5-0.6,1.2-0.6,2.1c0,1,0.2,1.7,0.7,2.1c0.4,0.5,1,0.7,1.8,0.7
	c0.4,0,0.7,0,1-0.1c0.5-0.1,0.9-0.4,1.2-0.7c0.1-0.1,0.3-0.2,0.4-0.3h0.4v2.6c-0.2,0.1-0.4,0.2-0.6,0.3c-0.2,0.1-0.5,0.2-0.7,0.2
	c-0.3,0.1-0.6,0.1-0.8,0.2C35.8,43,35.5,43,35.2,43z M51.3,42.7v-4.8c0-0.5,0-0.9,0-1.2c0-0.3-0.1-0.6-0.2-0.8
	c-0.1-0.2-0.2-0.4-0.4-0.4c-0.2-0.1-0.4-0.1-0.8-0.1c-0.2,0-0.5,0.1-0.7,0.1c-0.3,0.1-0.5,0.3-0.7,0.4v6.8h-3v-4.8
	c0-0.5,0-0.9,0-1.2c0-0.3-0.1-0.6-0.2-0.8c-0.1-0.2-0.2-0.4-0.4-0.4c-0.2-0.1-0.4-0.1-0.7-0.1c-0.2,0-0.5,0.1-0.7,0.2
	c-0.2,0.1-0.5,0.3-0.7,0.4v6.8h-3v-9.6h3v1.1c0.4-0.4,0.9-0.7,1.4-1c0.4-0.2,0.9-0.4,1.5-0.4c0.6,0,1.1,0.1,1.5,0.4
	c0.4,0.3,0.8,0.7,1,1.2c0.6-0.5,1.1-0.9,1.6-1.2s1-0.4,1.5-0.4c0.4,0,0.8,0.1,1.2,0.2c0.4,0.1,0.7,0.4,0.9,0.6
	c0.3,0.3,0.5,0.7,0.6,1.1c0.1,0.4,0.2,1,0.2,1.7v6.2L51.3,42.7z"/>
</svg>
