<?xml version="1.0" encoding="utf-8"?>
<!-- Generator: Adobe Illustrator 23.1.0, SVG Export Plug-In . SVG Version: 6.00 Build 0)  -->
<svg version="1.1" id="Layer_1" xmlns="http://www.w3.org/2000/svg" xmlns:xlink="http://www.w3.org/1999/xlink" x="0px" y="0px"
	 viewBox="0 0 97 40" style="enable-background:new 0 0 97 40;" xml:space="preserve">
<style type="text/css">
	.st0{fill:#00003D;}
</style>
<title>uist-logo</title>
<g id="traces">
	<path class="st0" d="M96.8,7.9h-5.2v1.7h-0.7V2.5h-0.5V1.2l0.5-0.5c-1.5-0.7-4.4,0-4.4,0l0.7,0.7v1l-0.5,0.3v3.2h-1v1.7H84v0.7
		l-2.5,0.3V7.4h-0.5v-1h-0.5v-1l-0.7-0.3V3.5h-1l-1.7,0.5v2.7l-2.4,2.2v-3h-0.7V2.5h-0.7V1.2L70,0.7v4.7l-0.7,0.2v6.4h-2.7V9.9
		l-1.2-1.2l-1.2,1.7V0.3L62.6,0h-2.7l-2.5,0.5l0.2,5.4h-1.5v1.7h-1v1h-1v1h-0.1v29.1c0,0,1.7,2.8,3,0V31c0,0,0-2.2,1.4-2.2
		c0.7,0.1,1.4-0.5,1.5-1.2c0,0,0-0.1,0-0.1v-5.3h4.4v5.3c0,0.7,0.6,1.4,1.3,1.4c0,0,0,0,0.1,0c1.4,0,1.4,2.2,1.4,2.2v7.7
		c0.5,1,1,1.3,1.5,1.2s1-0.2,1.5-1.2V31c0,0,0-2.2,1.4-2.2c0.7,0,1.4-0.6,1.4-1.3c0,0,0,0,0,0v-5.3h5v5.3c0,0.7,0.6,1.4,1.3,1.4
		c0,0,0,0,0.1,0c1.4,0,1.4,2.2,1.4,2.2v7.7c0.5,1,1,1.3,1.5,1.2s1-0.2,1.5-1.2V31c0,0,0-2.2,1.4-2.2c0.7,0,1.4-0.6,1.4-1.3
		c0,0,0,0,0-0.1v-5.3H91v5.3c0,0.7,0.6,1.4,1.3,1.4c0,0,0,0,0.1,0c1.4,0,1.4,2.2,1.4,2.2v7.7c1.4,2.8,3,0,3,0L96.8,7.9L96.8,7.9z"/>
	<path class="st0" d="M8.1,11.7h3.4v8.5c0,0.9-0.2,1.7-0.7,2.5c-0.5,0.7-1.1,1.2-1.9,1.5c-1,0.4-2,0.6-3,0.5c-1,0-2-0.2-2.9-0.5
		c-0.8-0.3-1.4-0.8-1.9-1.5c-0.5-0.7-0.7-1.6-0.6-2.5v-8.5H4V20c0,0.4,0.2,0.9,0.6,1.1c0.4,0.3,1,0.5,1.5,0.5c0.5,0,1.1-0.1,1.5-0.5
		c0.3-0.3,0.5-0.7,0.5-1.1V11.7z"/>
	<path class="st0" d="M17.6,11.7v12.8h-3.5V11.7H17.6z"/>
	<path class="st0" d="M27.1,15.7c0-0.4-0.2-0.7-0.5-1c-0.4-0.3-0.8-0.4-1.3-0.4c-0.4,0-0.8,0.1-1.2,0.3c-0.2,0.2-0.4,0.4-0.4,0.7
		c0,0.3,0.1,0.6,0.4,0.7c0.4,0.2,0.9,0.4,1.3,0.5l1.1,0.2c1.1,0.2,2.2,0.7,3,1.5c0.6,0.7,1,1.5,1,2.5c0.1,1.1-0.5,2.2-1.4,2.9
		c-1.1,0.7-2.5,1.1-3.8,1c-1,0-2-0.1-2.9-0.5c-0.8-0.3-1.5-0.8-1.9-1.5c-0.5-0.8-0.7-1.7-0.7-2.6h3.3c0,0.5,0.2,1,0.6,1.3
		c0.5,0.3,1,0.5,1.6,0.5c0.4,0,0.9-0.1,1.3-0.3c0.3-0.2,0.4-0.5,0.4-0.8c0-0.3-0.2-0.6-0.4-0.7c-0.5-0.3-1-0.4-1.5-0.5l-1.3-0.3
		c-1-0.2-1.9-0.6-2.7-1.2c-0.7-0.6-1-1.5-1-2.4c0-0.8,0.2-1.5,0.7-2.1c0.5-0.6,1.1-1.2,1.9-1.5c0.9-0.4,1.8-0.5,2.7-0.5
		c0.9,0,1.8,0.2,2.7,0.5c1.5,0.6,2.4,2.1,2.4,3.7L27.1,15.7z"/>
	<path class="st0" d="M31.5,14.5v-2.8h11.1v2.8h-3.9v10h-3.4v-10H31.5z"/>
	<g>
		<path class="st0" d="M1,38.8v-2.3L5.3,33c0.4-0.3,0.7-0.6,1-1c0.2-0.3,0.4-0.6,0.4-1c0-0.4-0.1-0.7-0.4-1
			c-0.3-0.3-0.7-0.4-1.1-0.4c-0.4,0-0.7,0.1-1,0.4c-0.3,0.3-0.4,0.6-0.4,1h-3c0-0.7,0.2-1.5,0.5-2.1c0.4-0.6,0.9-1.1,1.5-1.4
			c0.7-0.3,1.5-0.5,2.3-0.5c0.8,0,1.6,0.1,2.4,0.4c0.6,0.3,1.2,0.7,1.6,1.3c0.4,0.6,0.6,1.2,0.6,1.9c0,0.5-0.1,0.9-0.3,1.3
			c-0.2,0.5-0.6,1-1,1.5c-0.6,0.7-1.3,1.3-2,1.9l-1.1,0.9v0.1h4.5v2.5H1z"/>
		<path class="st0" d="M15.9,39.1c-1,0-1.9-0.2-2.7-0.7c-0.8-0.5-1.4-1.2-1.8-2.1c-0.4-1-0.7-2.1-0.6-3.3c0-1.1,0.2-2.2,0.6-3.2
			c0.4-0.8,1-1.5,1.8-2c0.8-0.5,1.8-0.7,2.7-0.7c1,0,1.9,0.2,2.7,0.7c0.8,0.5,1.4,1.2,1.8,2c0.4,1,0.7,2.1,0.6,3.2
			c0,1.1-0.2,2.2-0.6,3.3c-0.4,0.8-1,1.6-1.8,2.1C17.8,38.9,16.8,39.1,15.9,39.1z M15.9,36.6c0.6,0,1.1-0.3,1.3-0.8
			c0.4-0.8,0.6-1.7,0.5-2.7c0.1-0.9-0.1-1.8-0.5-2.6c-0.4-0.7-1.2-1-2-0.7c-0.3,0.1-0.5,0.4-0.7,0.7c-0.4,0.8-0.6,1.7-0.5,2.6
			c-0.1,0.9,0.1,1.8,0.5,2.7C14.8,36.2,15.3,36.6,15.9,36.6z"/>
		<path class="st0" d="M22.1,38.8v-2.3l4.3-3.5c0.4-0.3,0.7-0.6,1-1c0.2-0.3,0.4-0.6,0.4-1c0-0.4-0.1-0.7-0.4-1
			c-0.3-0.3-0.7-0.4-1.1-0.4c-0.8,0-1.4,0.5-1.4,1.3c0,0,0,0.1,0,0.1h-3c0-0.7,0.2-1.5,0.5-2.1c0.4-0.6,0.9-1,1.6-1.3
			c0.7-0.3,1.5-0.5,2.3-0.5c0.8,0,1.6,0.1,2.4,0.4c0.6,0.3,1.2,0.7,1.6,1.2c0.4,0.6,0.6,1.2,0.5,1.9c0,0.5-0.1,0.9-0.3,1.3
			c-0.3,0.5-0.6,1-1,1.5c-0.6,0.7-1.3,1.3-2,1.9l-1.1,0.9v0.1H31v2.5H22.1z"/>
		<path class="st0" d="M37.1,39.1c-1,0-1.9-0.2-2.7-0.7c-0.8-0.5-1.4-1.2-1.8-2.1c-0.4-1-0.6-2.1-0.6-3.3c0-1.1,0.2-2.2,0.6-3.2
			c0.4-0.8,1-1.5,1.8-2c0.8-0.5,1.8-0.7,2.7-0.7c1,0,1.9,0.2,2.7,0.7c0.8,0.5,1.4,1.2,1.8,2c0.4,1,0.6,2.1,0.6,3.2
			c0,1.1-0.2,2.2-0.6,3.3c-0.4,0.8-1,1.6-1.8,2.1C39,38.9,38,39.1,37.1,39.1z M37.1,36.6c0.6,0,1.1-0.3,1.3-0.8
			c0.4-0.8,0.6-1.8,0.5-2.7c0.1-0.9-0.1-1.8-0.5-2.6c-0.3-0.5-0.8-0.8-1.3-0.8c-0.6,0-1.1,0.3-1.3,0.8c-0.4,0.8-0.6,1.7-0.5,2.6
			c-0.1,0.9,0.1,1.8,0.5,2.7C36,36.2,36.5,36.6,37.1,36.6z"/>
	</g>
</g>
</svg>
